#!OML:ASF Y:\EmotionMaleHayes\Project 1\Capture day 1\Session 1\Male1.ASF
:FULLY-SPECIFIED
:DEGREES
247
root -30.0713 17.0206 1.1467 47.2635 85.9108 46.2898
lowerback 4.8979 1.18503 -6.97843
upperback -0.191158 1.17649 -0.334006
thorax -3.0847 0.698859 3.4802
lowerneck -20.9903 3.52835 4.11126
upperneck 25.0359 4.39834 -1.90686
head 11.8301 2.20851 -0.665731
rclavicle -1.58469e-014 -9.14409e-015
rhumerus -37.5027 7.32667 -92.2129
rradius 34.2576
rwrist 1.83719
rhand -9.54238 -30.8061
rfingers 7.12502
rthumb 16.4243 -60.1308
lclavicle -1.58469e-014 -9.14409e-015
lhumerus -32.5341 -7.74089 90.5789
lradius 22.4604
lwrist -20.0412
lhand -13.7044 -27.6948
lfingers 7.12502
lthumb 12.4141 1.91661
rfemur 3.1544 -0.0903832 12.8456
rtibia 11.0054
rfoot -21.1667 -4.30613
rtoes 14.4207
lfemur 9.76768 -1.26233 -16.2832
ltibia -0.825527
lfoot -12.1841 9.30301
ltoes -19.5567
248
root -30.057 17.0163 1.16844 48.2281 85.9962 47.1602
lowerback 4.8643 1.16474 -6.96904
upperback -0.196262 1.15251 -0.334804
thorax -3.06816 0.686356 3.47651
lowerneck -20.9543 3.51817 4.11304
upperneck 24.9108 4.37625 -1.90329
head 11.7739 2.19812 -0.669704
rclavicle 2.80783e-015 5.96354e-016
rhumerus -37.6745 7.29008 -92.2042
rradius 34.3065
rwrist 1.75492
rhand -9.49068 -30.9659
rfingers 7.12502
rthumb 16.4741 -60.2865
lclavicle 2.80783e-015 5.96354e-016
lhumerus -32.6457 -7.9181 90.5027
lradius 22.6511
lwrist -19.7211
lhand -14.1769 -27.5553
lfingers 7.12502
lthumb 11.9585 2.08312
rfemur 3.12782 -0.374969 12.8835
rtibia 11.035
rfoot -21.3855 -3.97302
rtoes 14.0704
lfemur 9.70804 -1.74109 -16.3103
ltibia -0.823518
lfoot -12.3765 9.63643
ltoes -18.8376
249
root -30.0391 17.0108 1.18922 52.5101 85.8878 51.3794
lowerback 4.87076 1.16224 -7.12473
upperback -0.213411 1.13601 -0.522883
thorax -3.08715 0.681262 3.36907
lowerneck -21.0202 3.45391 4.19588
upperneck 25.0434 4.25445 -1.88286
head 11.8355 2.15512 -0.694185
rclavicle -2.95692e-015 9.54166e-015
rhumerus -37.8757 7.15347 -92.3449
rradius 34.3973
rwrist 1.50909
rhand -9.43434 -30.9488
rfingers 7.12502
rthumb 16.5283 -60.2648
lclavicle -2.95692e-015 9.54166e-015
lhumerus -32.8534 -8.33916 90.3764
lradius 22.9065
lwrist -19.2084
lhand -14.1228 -27.3332
lfingers 7.12502
lthumb 12.0107 2.30218
rfemur 3.15355 -0.746498 12.5247
rtibia 11.1081
rfoot -21.6413 -3.62905
rtoes 14.2574
lfemur 9.623 -1.90025 -16.6286
ltibia -0.691195
lfoot -12.6155 9.64218
ltoes -18.2659
250
root -30.0223 17.0067 1.21385 55.461 85.8008 54.3468
lowerback 4.91506 1.14519 -7.20045
upperback -0.179512 1.10475 -0.673807
thorax -3.0717 0.665436 3.25666
lowerneck -21.0098 3.42586 4.28715
upperneck 25.1383 4.2203 -1.98461
head 11.8739 2.13691 -0.752504
rclavicle -8.10048e-015 2.98177e-015
rhumerus -37.9989 7.04462 -92.4691
rradius 34.4201
rwrist 1.35243
rhand -9.19603 -30.947
rfingers 7.12502
rthumb 16.7577 -60.2438
lclavicle -8.10048e-015 2.98177e-015
lhumerus -32.9665 -8.62618 90.2601
lradius 23.0996
lwrist -18.6996
lhand -13.0363 -27.2737
lfingers 7.12502
lthumb 13.0582 2.29753
rfemur 3.25593 -0.503743 12.4671
rtibia 11.1612
rfoot -21.9334 -3.84247
rtoes 14.7471
lfemur 9.48285 -1.67488 -16.6978
ltibia -0.290486
lfoot -12.8852 9.30884
ltoes -18.3812
251
root -30.0065 17.0046 1.24129 55.9597 85.8415 54.8928
lowerback 4.98733 1.13193 -7.21397
upperback -0.129374 1.08314 -0.64748
thorax -3.05855 0.653452 3.29278
lowerneck -20.8356 3.43678 4.16637
upperneck 24.9042 4.26284 -1.94495
head 11.7466 2.1492 -0.714327
rclavicle -7.62836e-015 2.14687e-014
rhumerus -37.9571 7.00216 -92.427
rradius 34.1878
rwrist 1.42688
rhand -8.99476 -30.8769
rfingers 7.12502
rthumb 16.9515 -60.1572
lclavicle -7.62836e-015 2.14687e-014
lhumerus -33.1309 -8.74487 90.2513
lradius 23.4421
lwrist -18.2472
lhand -12.7947 -27.1414
lfingers 7.12502
lthumb 13.2911 2.4148
rfemur 3.3761 -0.366062 12.6255
rtibia 11.181
rfoot -22.0301 -3.92903
rtoes 14.8954
lfemur 9.28964 -1.09335 -16.3493
ltibia 0.274348
lfoot -13.1074 8.67252
ltoes -18.7957
252
root -29.9851 17.0006 1.26824 55.3966 85.7741 54.3107
lowerback 5.00541 1.1866 -7.31706
upperback -0.135025 1.14893 -0.601513
thorax -3.08522 0.688963 3.39261
lowerneck -20.8407 3.41636 4.08155
upperneck 24.9959 4.30315 -2.0595
head 11.7848 2.14551 -0.735544
rclavicle -5.18704e-015 1.5704e-014
rhumerus -37.9859 6.95244 -92.3381
rradius 33.9608
rwrist 1.37994
rhand -8.97831 -30.8818
rfingers 7.12502
rthumb 16.9673 -60.1607
lclavicle -5.18704e-015 1.5704e-014
lhumerus -33.0976 -8.24722 90.0277
lradius 23.3025
lwrist -18.495
lhand -12.8209 -27.1596
lfingers 7.12502
lthumb 13.2658 2.39827
rfemur 3.41249 -0.535058 12.6094
rtibia 11.217
rfoot -22.0216 -3.55551
rtoes 14.471
lfemur 9.24092 -0.804407 -16.1818
ltibia 0.523591
lfoot -13.283 8.52716
ltoes -19.6724
253
root -29.9654 16.9982 1.29674 54.1012 85.9165 53.0964
lowerback 5.10286 1.22592 -7.18333
upperback -0.0607799 1.20549 -0.528856
thorax -3.06771 0.712783 3.38797
lowerneck -20.8981 3.3788 3.93357
upperneck 25.0548 4.293 -2.03126
head 11.8138 2.13034 -0.700988
rclavicle -5.36719e-015 0
rhumerus -38.1108 7.05866 -92.3704
rradius 33.9941
rwrist 1.09732
rhand -9.27251 -30.9086
rfingers 7.12502
rthumb 16.6841 -60.2116
lclavicle -5.36719e-015 0
lhumerus -33.1124 -7.97636 89.8232
lradius 23.4123
lwrist -18.5014
lhand -12.6946 -27.0241
lfingers 7.12502
lthumb 13.3875 2.52581
rfemur 3.64791 -0.416651 12.9515
rtibia 11.1053
rfoot -22.1196 -3.55462
rtoes 13.7722
lfemur 9.40424 -1.24831 -16.0348
ltibia 0.58664
lfoot -13.5322 9.10158
ltoes -20.8184
254
root -29.9399 16.9959 1.32078 48.2115 86.2175 47.2286
lowerback 5.23154 1.31499 -6.53494
upperback -0.0953896 1.35025 -0.484688
thorax -3.1773 0.778183 3.056
lowerneck -20.7958 3.30187 3.85058
upperneck 25.0581 4.17905 -1.89406
head 11.7854 2.09158 -0.656151
rclavicle -7.53518e-015 6.95746e-015
rhumerus -38.429 7.16054 -92.5712
rradius 34.0482
rwrist 0.858074
rhand -9.53563 -31.0233
rfingers 7.12502
rthumb 16.4308 -60.3475
lclavicle -7.53518e-015 6.95746e-015
lhumerus -33.3836 -8.10863 89.6705
lradius 23.676
lwrist -18.1786
lhand -12.9064 -26.9573
lfingers 7.12502
lthumb 13.1834 2.60592
rfemur 3.78143 -0.279212 13.6789
rtibia 11.0106
rfoot -22.1986 -3.58468
rtoes 13.2145
lfemur 9.46458 -1.60651 -15.5008
ltibia 0.831106
lfoot -13.9464 9.61898
ltoes -21.7335
255
root -29.9266 16.9898 1.35186 45.7942 86.4932 44.7995
lowerback 5.11288 1.31364 -6.23512
upperback 0.0878717 1.38448 -0.429401
thorax -2.91724 0.779509 2.94738
lowerneck -20.7309 3.2253 3.94791
upperneck 24.8657 4.08648 -2.09408
head 11.7027 2.03151 -0.763764
rclavicle -1.18028e-015 2.38542e-015
rhumerus -38.2247 7.19806 -92.6176
rradius 33.8864
rwrist 0.749348
rhand -9.52177 -30.9724
rfingers 7.12502
rthumb 16.4441 -60.2954
lclavicle -1.18028e-015 2.38542e-015
lhumerus -33.3202 -8.22026 89.4835
lradius 24.0362
lwrist -17.7969
lhand -13.3163 -27.0945
lfingers 7.12502
lthumb 12.7883 2.49384
rfemur 3.85045 -0.401597 14.1649
rtibia 10.963
rfoot -22.2962 -3.59864
rtoes 12.9447
lfemur 9.08834 -1.0801 -14.8032
ltibia 1.63173
lfoot -14.1498 9.09655
ltoes -23.5057
256
root -29.9105 16.9837 1.38286 45.0962 86.5703 44.1724
lowerback 5.32648 1.35923 -6.14765
upperback 0.10807 1.43515 -0.45343
thorax -3.01835 0.805872 2.86529
lowerneck -20.6906 3.17791 4.12554
upperneck 24.7444 3.99201 -2.22855
head 11.6525 1.98749 -0.859642
rclavicle 2.69602e-015 8.54774e-015
rhumerus -38.307 6.92774 -92.6151
rradius 33.711
rwrist 0.821185
rhand -9.45143 -30.8133
rfingers 7.12502
rthumb 16.5119 -60.1307
lclavicle 2.69602e-015 8.54774e-015
lhumerus -33.6536 -8.45789 89.3385
lradius 24.5265
lwrist -17.411
lhand -13.9729 -26.994
lfingers 7.12502
lthumb 12.1552 2.6329
rfemur 4.05117 -0.375056 14.4093
rtibia 10.8874
rfoot -22.4595 -3.64313
rtoes 12.6789
lfemur 8.88048 -0.678105 -14.4386
ltibia 2.28266
lfoot -14.2409 8.78603
ltoes -24.9108
257
root -29.8555 16.9659 1.38912 62.6819 85.1023 62.1102
lowerback 5.26215 1.36523 -7.79878
upperback 0.325522 1.35763 -1.05064
thorax -2.77345 0.779325 3.17869
lowerneck -20.6424 3.1546 4.14824
upperneck 24.7432 3.97379 -2.2942
head 11.644 1.97386 -0.891256
rclavicle 1.45486e-014 -1.59028e-014
rhumerus -38.3352 6.74703 -92.5843
rradius 33.4132
rwrist 0.892482
rhand -9.36435 -30.7507
rfingers 7.12502
rthumb 16.5957 -60.0611
lclavicle 1.45486e-014 -1.59028e-014
lhumerus -33.8886 -8.49086 89.1866
lradius 24.8671
lwrist -16.7639
lhand -14.3539 -26.914
lfingers 7.12502
lthumb 11.7878 2.73431
rfemur 4.89481 -1.58288 11.629
rtibia 10.6643
rfoot -22.5393 -2.2761
rtoes 13.034
lfemur 9.293 -0.774119 -17.0784
ltibia 2.52588
lfoot -14.4076 8.85618
ltoes -25.6022
258
root -29.8186 16.9608 1.40846 65.2645 84.6238 64.8781
lowerback 5.24681 1.40482 -8.21849
upperback 0.477189 1.3976 -1.18594
thorax -2.61777 0.796229 3.27119
lowerneck -20.6392 3.16453 3.98722
upperneck 24.7982 4.03504 -2.25137
head 11.6617 1.99262 -0.838386
rclavicle 9.08197e-015 -2.18663e-015
rhumerus -38.2738 6.69243 -92.4591
rradius 33.0771
rwrist 0.851394
rhand -9.24926 -30.5912
rfingers 7.12502
rthumb 16.7065 -59.8923
lclavicle 9.08197e-015 -2.18663e-015
lhumerus -33.8898 -8.02931 88.8915
lradius 25.1456
lwrist -15.6393
lhand -12.9535 -27.2099
lfingers 7.12502
lthumb 13.1381 2.35624
rfemur 5.22963 -1.92105 10.8568
rtibia 10.7269
rfoot -22.6926 -1.53222
rtoes 14.5194
lfemur 9.34344 -1.03658 -17.8504
ltibia 3.08136
lfoot -14.7203 9.10998
ltoes -25.9571
259
root -29.799 16.9566 1.4407 63.462 84.9106 63.1149
lowerback 5.31815 1.45017 -7.87051
upperback 0.541936 1.47488 -1.10107
thorax -2.5929 0.827825 3.15862
lowerneck -20.5281 3.14592 3.88918
upperneck 24.7317 4.03827 -2.2272
head 11.6115 1.98917 -0.814109
rclavicle 1.87976e-014 -9.54166e-015
rhumerus -38.2793 6.68062 -92.4519
rradius 32.9088
rwrist 0.822534
rhand -9.2017 -30.745
rfingers 7.12502
rthumb 16.7523 -60.0422
lclavicle 1.87976e-014 -9.54166e-015
lhumerus -34.0529 -7.89703 88.7038
lradius 25.4936
lwrist -15.1109
lhand -12.5886 -27.2011
lfingers 7.12502
lthumb 13.4897 2.34198
rfemur 5.26517 -1.70954 11.4357
rtibia 10.8715
rfoot -22.872 -1.4819
rtoes 15.5437
lfemur 9.04692 -1.40437 -17.4431
ltibia 3.92158
lfoot -15.2394 9.34229
ltoes -25.3048
260
root -29.7821 16.9486 1.47266 61.6835 85.0966 61.3489
lowerback 5.43885 1.51601 -7.52166
upperback 0.600898 1.57422 -1.12628
thorax -2.60034 0.872197 2.92792
lowerneck -20.4557 3.11352 4.04476
upperneck 24.6126 3.98747 -2.40278
head 11.558 1.95803 -0.914434
rclavicle 1.63003e-014 -1.55052e-014
rhumerus -38.1921 6.65229 -92.5962
rradius 32.6804
rwrist 0.632151
rhand -9.29333 -30.9513
rfingers 7.12502
rthumb 16.6641 -60.256
lclavicle 1.63003e-014 -1.55052e-014
lhumerus -34.2698 -8.08381 88.5348
lradius 26.0071
lwrist -14.3681
lhand -12.4371 -26.9102
lfingers 7.12502
lthumb 13.6358 2.62316
rfemur 5.28967 -1.50382 11.9171
rtibia 10.9956
rfoot -23.0608 -1.5112
rtoes 15.895
lfemur 8.59846 -1.52764 -17.0961
ltibia 4.96043
lfoot -15.6691 9.59515
ltoes -25.0151
